<?xml version="1.0" encoding="UTF-8"?><svg id="Layer_1" xmlns="http://www.w3.org/2000/svg" viewBox="0 0 32 32"><defs><style>.cls-1{fill:#c16868;}.cls-2{fill:#1f6095;}</style></defs><rect class="cls-2" width="32" height="32"/><path class="cls-1" d="M17.44,25.03v-.17h0v-7.17h1.47l.9,1.8c1.15,2.3,3.87,3.34,6.27,2.39,1.88-.75,3.11-2.57,3.11-4.6v-6.93c0-1.75-.77-3.33-1.99-4.41h.52c.81,0,1.47-.66,1.47-1.47s-.66-1.47-1.47-1.47h-10.28c-6.49,0-11.75,5.26-11.75,11.75H0v17.25H14.51v-.03c1.76-1.76,2.89-4.19,2.94-6.95Zm4.4-16.15c.81,0,1.47,.66,1.47,1.47s-.66,1.47-1.47,1.47-1.47-.66-1.47-1.47,.66-1.47,1.47-1.47Z"/></svg>